<svg xmlns="http://www.w3.org/2000/svg" width="16" height="16" color="whitesmoke" fill="whitesmoke" viewBox="0 0 16 16">
	<path d="M3.5,12.5C3.5,12.8,3.3,13,3,13s-0.5-0.2-0.5-0.5V3.7L1.4,4.9C1.2,5,0.8,5,0.6,4.9s-0.2-0.5,0-0.7l2-2l0,0
			C2.8,2,3.2,2,3.4,2.1l2,2c0.2,0.2,0.2,0.5,0,0.7S4.8,5,4.6,4.9L3.5,3.7V12.5z M7,3.5C7,3.2,7.2,3,7.5,3h7C14.8,3,15,3.2,15,3.5
			S14.8,4,14.5,4h-7C7.2,4,7,3.8,7,3.5z M7,6.5C7,6.2,7.2,6,7.5,6h7C14.8,6,15,6.2,15,6.5S14.8,7,14.5,7h-7C7.2,7,7,6.8,7,6.5z M3.5,12.3l1.1-1.1c0.2-0.2,0.5-0.2,0.7,0s0.2,0.5,0,0.7l-2,2c-0.2,0.2-0.5,0.2-0.7,0l0,0l-2-2c-0.2-0.2-0.2-0.5,0-0.7
			s0.5-0.2,0.7,0l1.1,1.1V3.5C2.5,3.2,2.7,3,3,3s0.5,0.2,0.5,0.5V12.3z M7.5,12h7c0.3,0,0.5,0.2,0.5,0.5c0,0.3-0.2,0.5-0.5,0.5h-7
			C7.2,13,7,12.8,7,12.5C7,12.2,7.2,12,7.5,12z M7.5,9h7C14.8,9,15,9.2,15,9.5c0,0.3-0.2,0.5-0.5,0.5h-7C7.2,10,7,9.8,7,9.5
			C7,9.2,7.2,9,7.5,9z" />
</svg>