<?xml version="1.0" encoding="UTF-8" standalone="no"?>
<svg
   xmlns:dc="http://purl.org/dc/elements/1.1/"
   xmlns:cc="http://creativecommons.org/ns#"
   xmlns:rdf="http://www.w3.org/1999/02/22-rdf-syntax-ns#"
   xmlns:svg="http://www.w3.org/2000/svg"
   xmlns="http://www.w3.org/2000/svg"
   xmlns:sodipodi="http://sodipodi.sourceforge.net/DTD/sodipodi-0.dtd"
   xmlns:inkscape="http://www.inkscape.org/namespaces/inkscape"
   width="24"
   height="24"
   viewBox="0 0 24 24"
   version="1.1"
   id="svg4"
   sodipodi:docname="icon-refresh-dark.svg"
   inkscape:version="1.0 (4035a4fb49, 2020-05-01)">
  <metadata
     id="metadata10">
    <rdf:RDF>
      <cc:Work
         rdf:about="">
        <dc:format>image/svg+xml</dc:format>
        <dc:type
           rdf:resource="http://purl.org/dc/dcmitype/StillImage" />
        <dc:title />
      </cc:Work>
    </rdf:RDF>
  </metadata>
  <defs
     id="defs8" />
  <sodipodi:namedview
     inkscape:snap-bbox-edge-midpoints="true"
     inkscape:bbox-nodes="true"
     inkscape:snap-bbox="true"
     inkscape:document-rotation="0"
     pagecolor="#ffffff"
     bordercolor="#666666"
     borderopacity="1"
     objecttolerance="10"
     gridtolerance="10"
     guidetolerance="10"
     inkscape:pageopacity="0"
     inkscape:pageshadow="2"
     inkscape:window-width="1899"
     inkscape:window-height="1008"
     id="namedview6"
     showgrid="true"
     inkscape:zoom="25.337994"
     inkscape:cx="8.6395802"
     inkscape:cy="11.105151"
     inkscape:window-x="0"
     inkscape:window-y="0"
     inkscape:window-maximized="0"
     inkscape:current-layer="svg4">
    <inkscape:grid
       id="grid830"
       type="xygrid" />
  </sodipodi:namedview>
  <path
     sodipodi:nodetypes="scccccsssccsss"
     d="M 13.5,2 C 7.879,2 3.289,6.443 3.025,12 H 0 L 4.5658693,17 9,12 H 6 c 0.257,-3.351 4.085,-7.0655934 7.5,-7.0655934 3.584,0 7.565593,4.0210598 7.565593,7.6050594 0,3.584 -3.942127,7.368262 -7.526127,7.368262 C 11.676466,19.907728 9.186,19.26 8,18 L 6.345,20.163 C 8.222,21.917 10.734,23 13.5,23 19.29,23 24,18.29 24,12.5 24,6.71 19.29,2 13.5,2 Z"
     id="path2"
     style="fill:#f5f5f5;fill-opacity:1" />
</svg>
