<?xml version="1.0" encoding="utf-8"?>
<svg version="1.1" xmlns="http://www.w3.org/2000/svg" xmlns:xlink="http://www.w3.org/1999/xlink" x="0px" y="0px"
	viewBox="0 0 656.2 714.3" style="enable-background:new 0 0 656.2 714.3;" xml:space="preserve">
	<style type="text/css">
		.st0 {
			fill: #fff;
		}

		.st1 {
			fill: none;
			stroke: #fff;
			stroke-width: 50;
			stroke-miterlimit: 10;
		}
	</style>
	<g id="layer_1">
		<path class="st0" d="M170.8,460.3c-12.4,0-23.3-2.4-32.6-7.1c-9-4.4-16.5-11.3-21.5-20c-5.1-8.6-7.6-18.8-7.6-30.5v-84.6
				c0-11.9,2.5-22.1,7.6-30.6c5.1-8.6,12.6-15.5,21.5-19.8c9.3-4.7,20.2-7.1,32.6-7.1c12.6,0,23.5,2.3,32.6,7
				c8.9,4.5,16.3,11.3,21.4,19.8c5.1,8.5,7.7,18.7,7.7,30.6h-33.6c0-9.2-2.5-16.2-7.4-21c-5-4.8-11.9-7.2-20.8-7.2
				c-9.1,0-16.1,2.4-21,7.2c-4.9,4.8-7.4,11.7-7.4,20.7v84.9c0,9.1,2.5,16.1,7.4,21c5,4.9,12,7.4,21,7.5c8.9,0,15.8-2.5,20.8-7.5
				c5-5,7.5-12,7.4-21v-19.7h-33v-28.7h66.5v48.5c0,11.7-2.6,21.9-7.7,30.5c-5.1,8.6-12.5,15.5-21.4,19.9
				C194.2,458,183.3,460.3,170.8,460.3z" />
		<path class="st0" d="M270,457.7V263.5h64.7c12.9,0,24.2,2.5,33.9,7.4c9.3,4.7,17.1,11.9,22.5,20.9c5.3,9,8,19.5,8,31.5
				c0,11.9-2.7,22.4-8.1,31.4c-5.4,9-13.1,16.3-22.5,21c-9.6,5-20.8,7.4-33.8,7.4h-31.4v74.5L270,457.7z M303.2,353.1h31.4
				c9.2,0,16.6-2.7,22.2-8.1c5.6-5.4,8.4-12.6,8.4-21.7c0-9.2-2.8-16.5-8.4-21.8c-5.6-5.3-13-8-22.2-8h-31.4V353.1z" />
		<path class="st0" d="M429.6,457.7V263.5h64.7c12.9,0,24.3,2.5,33.9,7.4c9.3,4.7,17.1,11.9,22.5,20.9c5.3,9,8,19.5,8,31.5
				c0,11.9-2.7,22.4-8.1,31.4c-5.3,9-13.1,16.3-22.5,21c-9.6,5-20.8,7.4-33.8,7.4h-31.4v74.5L429.6,457.7z M462.9,353.1h31.4
				c9.2,0,16.6-2.7,22.2-8.1c5.6-5.4,8.4-12.6,8.4-21.7c0-9.2-2.8-16.5-8.4-21.8c-5.6-5.3-13-8-22.2-8h-31.4V353.1z" />
	</g>
	<g id="layer_2">
		<path class="st1" d="M385.8,40.5l187.8,108.4c35.7,20.6,57.7,58.7,57.7,99.9v216.8c0,41.2-22,79.3-57.7,99.9L385.8,673.9
		c-35.7,20.6-79.7,20.6-115.3,0L82.7,565.5C47,544.8,25,506.8,25,465.6V248.8c0-41.2,22-79.3,57.7-99.9L270.4,40.5
		C306.1,19.8,350.1,19.8,385.8,40.5z" />
	</g>
</svg>